# xmcd CD database file
#
# Track frame offsets:
#	150
#	18955
#	54162
#	71960
#	106522
#	165177
#	199792
#	231210
#	242947
#
# Disc length: 3587 seconds
#
# Revision: 10
# Processed by: cddbd v1.5.2PL0 Copyright (c) Steve Scherf et al.
# Submitted via: CDex 2.21
#
DISCID=690e0109
DTITLE=Buddy Guy - Live - The Real Deal
DYEAR=1996
DGENRE=Blues
TTITLE0=I've Got My Eyes On You
TTITLE1=Sweet Black Angel
TTITLE2=Talk To Me Baby
TTITLE3=My Time After Awhile
TTITLE4=I've Got News For You
TTITLE5=Damn Right I've Got The Blues
TTITLE6=First Time I Met The Blues
TTITLE7=Ain't That Lovin' You
TTITLE8=Let Me Love You Baby
EXTD=YEAR: 1996
EXTT0=
EXTT1=
EXTT2=
EXTT3=
EXTT4=
EXTT5=
EXTT6=
EXTT7=
EXTT8=
PLAYORDER=
